<svg xmlns="http://www.w3.org/2000/svg" version="1.1" xmlns:xlink="http://www.w3.org/1999/xlink" xmlns:svgjs="http://svgjs.dev/svgjs" width="1000" height="1000" viewBox="0 0 1000 1000"><g transform="matrix(1,0,0,1,0,0)"><svg viewBox="0 0 280 280" data-background-color="#2f2f3b" preserveAspectRatio="xMidYMid meet" height="1000" width="1000" xmlns="http://www.w3.org/2000/svg" xmlns:xlink="http://www.w3.org/1999/xlink"><g id="tight-bounds" transform="matrix(1,0,0,1,0,0)"><svg viewBox="0 0 280 280" height="280" width="280"><g><svg viewBox="0 0 280 280" height="280" width="280"><g><svg viewBox="0 0 280 280" height="280" width="280"><g id="textblocktransform"><svg viewBox="0 0 280 280" height="280" width="280" id="textblock"><g><svg viewBox="0 0 280 280" height="280" width="280"><g transform="matrix(1,0,0,1,57.50420886156945,57.50420886156945)"><svg viewBox="0 0 164.9915822768611 164.9915822768611" height="164.9915822768611" width="164.9915822768611"><g><circle r="82" cx="82.49579113843055" cy="82.49579113843055" fill="#ffffff" data-fill-palette-color="accent"></circle><svg xmlns="http://www.w3.org/2000/svg" xmlns:xlink="http://www.w3.org/1999/xlink" version="1.1" x="24.74873734152917" y="24.748737341529164" viewBox="5 6 90 89" enable-background="new 0 0 100 100" xml:space="preserve" height="115.49410759380275" width="115.49410759380275" class="icon-o-0" data-fill-palette-color="quaternary" id="o-0"><path d="M81.777 46L78 29l-11 6-2-19-4 6L44 6 33 18l1 7-9-5L14.407 46H5v4h9.19l0.516 2.708L17 53.473l2.842-0.947c0.103-0.033 0.214-0.033 0.316 0L23 53.473l2.842-0.947c0.103-0.033 0.214-0.033 0.316 0l3 1c0.262 0.088 0.403 0.371 0.316 0.633C29.404 54.367 29.209 54.5 29 54.5c-0.052 0-0.105-0.008-0.158-0.025L26 53.527l-2.842 0.947c-0.103 0.033-0.214 0.033-0.316 0L20 53.527l-2.842 0.947c-0.103 0.033-0.214 0.033-0.316 0l-1.921-0.641L18 70l6-2 0.424 6.792L27 71l-2.422 6.25L25 84l9-1 3.981 4.777L40 78l-0.63 11.443L44 95l8-6 2-5 8 2 2.037-6.113-1.568-7.295 2.477 4.575L67 71l12 6 2.423-22.613-0.265 0.088c-0.104 0.033-0.213 0.033-0.316 0L78 53.527l-2.842 0.947c-0.104 0.033-0.213 0.033-0.316 0L72 53.527l-2.842 0.947c-0.262 0.088-0.545-0.055-0.633-0.316-0.087-0.262 0.055-0.545 0.316-0.633l3-1c0.104-0.033 0.213-0.033 0.316 0L75 53.473l2.842-0.947c0.104-0.033 0.213-0.033 0.316 0L81 53.473l0.54-0.18L81.893 50H95v-4H81.777zM43.474 59.158C43.404 59.367 43.209 59.5 43 59.5c-0.052 0-0.105-0.008-0.158-0.025L40 58.527l-2.842 0.947c-0.103 0.033-0.214 0.033-0.316 0L34 58.527l-2.842 0.947c-0.103 0.033-0.214 0.033-0.316 0L28 58.527l-2.842 0.947c-0.264 0.089-0.545-0.055-0.632-0.316-0.087-0.262 0.054-0.545 0.316-0.633l3-1c0.103-0.033 0.214-0.033 0.316 0L31 58.473l2.842-0.947c0.103-0.033 0.214-0.033 0.316 0L37 58.473l2.842-0.947c0.103-0.033 0.214-0.033 0.316 0l3 1C43.42 58.613 43.562 58.896 43.474 59.158zM52.842 54.475L50 53.527l-2.842 0.947c-0.103 0.033-0.214 0.033-0.316 0L44 53.527l-2.842 0.947c-0.265 0.089-0.545-0.056-0.632-0.316-0.087-0.262 0.054-0.545 0.316-0.633l3-1c0.103-0.033 0.214-0.033 0.316 0L47 53.473l2.842-0.947c0.103-0.033 0.214-0.033 0.316 0L53 53.473l2.842-0.947c0.104-0.033 0.213-0.033 0.316 0l3 1c0.262 0.088 0.403 0.371 0.316 0.633C59.404 54.367 59.209 54.5 59 54.5c-0.053 0-0.105-0.008-0.158-0.025L56 53.527l-2.842 0.947C53.055 54.508 52.945 54.508 52.842 54.475zM68.842 57.525c0.104-0.033 0.213-0.033 0.316 0l3 1c0.262 0.088 0.403 0.371 0.316 0.633C72.404 59.367 72.209 59.5 72 59.5c-0.053 0-0.105-0.008-0.158-0.025L69 58.527l-2.842 0.947c-0.104 0.033-0.213 0.033-0.316 0L63 58.527l-2.842 0.947c-0.104 0.033-0.213 0.033-0.316 0L57 58.527l-2.842 0.947c-0.262 0.088-0.545-0.055-0.633-0.316-0.087-0.262 0.055-0.545 0.316-0.633l3-1c0.104-0.033 0.213-0.033 0.316 0L60 58.473l2.842-0.947c0.104-0.033 0.213-0.033 0.316 0L66 58.473 68.842 57.525zM18.292 46L25 23l10 5 4 11-4-20 9-11 8 8 3 15-1-13 7 8 3-5 2 16 5.805-3.167L72 40l1.561-7.124L77 31l0.938 15H18.292z" fill="#636365" data-fill-palette-color="quaternary"></path><path d="M14.158 52.525c-0.103-0.033-0.214-0.033-0.316 0l-3 1c-0.262 0.088-0.403 0.371-0.316 0.633 0.087 0.261 0.368 0.405 0.632 0.316L14 53.527l0.921 0.307-0.215-1.126L14.158 52.525z" fill="#636365" data-fill-palette-color="quaternary"></path><path d="M84 53.527l2.842 0.947C86.895 54.492 86.947 54.5 87 54.5c0.209 0 0.404-0.133 0.475-0.342 0.087-0.262-0.055-0.545-0.316-0.633l-3-1c-0.104-0.033-0.213-0.033-0.316 0l-2.302 0.768-0.117 1.094L84 53.527z" fill="#636365" data-fill-palette-color="quaternary"></path></svg></g></svg></g><g><path d="M11.78 181.679v0c0.553-0.211 1.103-0.393 1.65-0.545 0.547-0.152 1.017-0.246 1.409-0.282v0c0.309 0.658 0.639 1.13 0.99 1.415 0.358 0.283 0.855 0.374 1.493 0.273 0.638-0.101 1.537-0.374 2.699-0.818v0l11.481-4.389c1.131-0.432 1.949-0.816 2.454-1.152 0.505-0.336 0.797-0.728 0.874-1.178 0.071-0.447 0.022-1.041-0.147-1.78v0c0.341-0.244 0.799-0.498 1.376-0.761 0.582-0.265 1.075-0.475 1.479-0.63v0c0.199 0.614 0.461 1.365 0.786 2.252 0.322 0.881 0.669 1.824 1.038 2.829 0.368 0.999 0.725 1.952 1.072 2.859v0c0.202 0.528 0.44 1.113 0.714 1.756 0.274 0.643 0.566 1.368 0.874 2.176v0c0.558 1.46 1.004 2.906 1.338 4.337 0.334 1.432 0.465 2.809 0.394 4.132-0.071 1.323-0.405 2.583-1.001 3.78-0.596 1.196-1.517 2.3-2.761 3.309-1.245 1.01-2.898 1.909-4.961 2.697v0c-2.044 0.781-3.892 1.2-5.544 1.255-1.652 0.055-3.126-0.14-4.421-0.585-1.295-0.445-2.436-1.055-3.424-1.831-0.987-0.776-1.833-1.628-2.536-2.555-0.703-0.927-1.278-1.825-1.724-2.695-0.446-0.869-0.789-1.617-1.029-2.245v0c-0.252-0.659-0.598-1.545-1.038-2.658-0.44-1.113-0.9-2.28-1.38-3.499-0.478-1.213-0.915-2.32-1.313-3.321-0.4-1.008-0.68-1.723-0.842-2.146zM19.805 193.842v0c0.107 0.28 0.35 0.635 0.729 1.067 0.385 0.43 0.996 0.78 1.833 1.051 0.837 0.271 1.985 0.331 3.443 0.179 1.456-0.158 3.331-0.675 5.623-1.552v0c2.013-0.769 3.613-1.566 4.801-2.39 1.179-0.828 2.027-1.665 2.543-2.511 0.511-0.843 0.783-1.677 0.817-2.501 0.036-0.818-0.096-1.619-0.395-2.402v0c-0.164-0.429-0.383-0.808-0.659-1.137-0.267-0.325-0.539-0.552-0.816-0.681v0l1.876-0.066-16.503 6.31c-1.156 0.442-2.023 0.873-2.603 1.294-0.571 0.425-0.902 0.9-0.993 1.426-0.087 0.517 0.014 1.155 0.304 1.913z" fill="#ffffff" data-fill-palette-color="primary"></path><path d="M51.027 202.995v0c0.374 0.527 0.848 1.165 1.422 1.915 0.571 0.744 1.178 1.536 1.823 2.374 0.641 0.833 1.27 1.641 1.888 2.424 0.614 0.778 1.156 1.464 1.625 2.06v0l-15.357 12.12c-0.971 0.766-1.67 1.437-2.098 2.012-0.418 0.576-0.592 1.128-0.522 1.657 0.071 0.52 0.358 1.098 0.861 1.736v0l-3.456 0.516c-0.437-0.553-1.031-1.296-1.783-2.228-0.752-0.932-1.539-1.907-2.362-2.927-0.818-1.015-1.566-1.941-2.244-2.779-0.682-0.843-1.163-1.442-1.443-1.797v0c0.465-0.367 0.935-0.704 1.412-1.013 0.477-0.308 0.897-0.538 1.26-0.689v0c0.491 0.536 0.947 0.888 1.368 1.056 0.426 0.164 0.928 0.102 1.506-0.185 0.578-0.287 1.356-0.816 2.332-1.586v0l9.648-7.615c0.95-0.75 1.616-1.36 1.999-1.832 0.382-0.471 0.543-0.933 0.483-1.385-0.066-0.448-0.289-1-0.672-1.656v0c0.253-0.335 0.614-0.714 1.086-1.136 0.476-0.427 0.884-0.774 1.224-1.042zM48.668 230.554v0c0.485 0.744 0.861 1.494 1.127 2.25 0.267 0.747 0.382 1.359 0.345 1.838v0c-0.906 0.334-1.931 0.817-3.076 1.449-1.15 0.636-2.277 1.318-3.38 2.045v0c-0.461-0.627-1.073-1.424-1.836-2.39-0.758-0.961-1.544-1.967-2.357-3.019-0.818-1.058-1.577-2.03-2.278-2.918v0l3.456-0.516 0.427 0.54c0.569 0.72 1.206 1.222 1.911 1.504 0.7 0.286 1.511 0.358 2.432 0.215 0.921-0.142 1.998-0.475 3.229-0.998zM55.098 222.646v0c-0.523 0.379-1.089 0.783-1.699 1.213-0.604 0.426-1.308 0.956-2.112 1.591v0c-0.888 0.7-1.611 1.297-2.172 1.79-0.555 0.489-1.056 0.927-1.504 1.315v0c-0.47-0.595-0.855-1.126-1.155-1.593-0.3-0.466-0.53-0.929-0.689-1.388v0c0.801-0.768 1.198-1.45 1.193-2.047-0.005-0.597-0.375-1.361-1.108-2.29v0l-1.428-1.809 2.381-1.879 1.428 1.809c0.82 1.039 1.525 1.588 2.114 1.648 0.599 0.061 1.319-0.223 2.16-0.853v0c0.436 0.241 0.884 0.599 1.344 1.074 0.464 0.481 0.88 0.954 1.247 1.419zM64.575 220.161v0c-0.516 0.441-1.103 0.964-1.762 1.568-0.653 0.6-1.277 1.211-1.871 1.833-0.59 0.627-1.089 1.202-1.496 1.727v0c-0.463-0.287-0.948-0.633-1.455-1.038-0.512-0.401-1.06-0.973-1.645-1.714v0c0.659-0.732 1.16-1.462 1.501-2.188 0.332-0.728 0.423-1.503 0.274-2.326-0.159-0.824-0.656-1.766-1.492-2.826v0l-2.324-2.944 3.227-0.806c1.253 1.587 2.311 2.917 3.174 3.989 0.863 1.072 1.601 1.986 2.213 2.74 0.608 0.749 1.16 1.41 1.656 1.985z" fill="#ffffff" data-fill-palette-color="primary"></path><path d="M70.922 226.184v0c0.507 0.401 1.141 0.88 1.904 1.437 0.757 0.554 1.563 1.142 2.417 1.765 0.849 0.619 1.681 1.217 2.494 1.794 0.808 0.574 1.521 1.08 2.14 1.519v0l-11.324 15.954c-0.716 1.009-1.198 1.849-1.447 2.521-0.239 0.67-0.251 1.249-0.034 1.737 0.215 0.479 0.653 0.953 1.315 1.423v0l-3.171 1.468c-0.575-0.408-1.354-0.953-2.339-1.635-0.984-0.682-2.014-1.397-3.09-2.145-1.071-0.744-2.049-1.422-2.935-2.035-0.892-0.617-1.522-1.056-1.891-1.317v0c0.343-0.483 0.699-0.939 1.07-1.37 0.371-0.43 0.709-0.769 1.015-1.016v0c0.622 0.376 1.158 0.586 1.609 0.628 0.455 0.037 0.919-0.163 1.394-0.601 0.474-0.438 1.071-1.164 1.791-2.179v0l7.114-10.023c0.701-0.987 1.168-1.76 1.402-2.32 0.234-0.56 0.259-1.048 0.074-1.465-0.189-0.412-0.559-0.878-1.111-1.4v0c0.148-0.392 0.389-0.858 0.722-1.396 0.337-0.544 0.631-0.992 0.881-1.344zM76.417 253.293v0c0.675 0.577 1.247 1.191 1.715 1.841 0.467 0.641 0.749 1.197 0.848 1.666v0c-0.775 0.575-1.623 1.327-2.543 2.256-0.924 0.934-1.814 1.906-2.668 2.915v0c-0.619-0.472-1.43-1.064-2.434-1.777-0.998-0.708-2.035-1.453-3.113-2.233-1.082-0.785-2.085-1.504-3.006-2.159v0l3.171-1.468 0.561 0.398c0.748 0.531 1.501 0.833 2.257 0.905 0.753 0.077 1.551-0.082 2.395-0.478 0.844-0.396 1.783-1.018 2.817-1.866zM80.36 243.894v0c-0.395 0.511-0.825 1.058-1.288 1.642-0.46 0.579-0.986 1.286-1.579 2.122v0c-0.654 0.922-1.181 1.698-1.58 2.328-0.395 0.625-0.753 1.187-1.073 1.685v0c-0.618-0.439-1.137-0.84-1.557-1.202-0.419-0.363-0.77-0.742-1.052-1.138v0c0.552-0.962 0.742-1.729 0.569-2.301-0.173-0.572-0.743-1.2-1.708-1.885v0l-1.88-1.334 1.756-2.473 1.879 1.334c1.079 0.766 1.91 1.095 2.493 0.986 0.592-0.11 1.203-0.586 1.833-1.427v0c0.486 0.108 1.017 0.326 1.592 0.653 0.581 0.331 1.113 0.667 1.595 1.01zM88.755 238.841v0c-0.371 0.569-0.787 1.236-1.249 2.001-0.458 0.76-0.884 1.522-1.28 2.285-0.39 0.767-0.706 1.46-0.949 2.079v0c-0.525-0.145-1.088-0.34-1.688-0.586-0.604-0.241-1.291-0.635-2.061-1.182v0c0.426-0.888 0.701-1.729 0.824-2.522 0.114-0.792-0.017-1.562-0.392-2.31-0.384-0.746-1.127-1.509-2.228-2.29v0l-3.059-2.172 2.87-1.682c1.649 1.17 3.038 2.148 4.169 2.935 1.13 0.786 2.095 1.455 2.895 2.006 0.794 0.547 1.51 1.027 2.148 1.438z" fill="#ffffff" data-fill-palette-color="primary"></path><path d="M87.588 268.917v0c0.234-0.686 0.45-1.259 0.648-1.719 0.199-0.459 0.409-0.851 0.632-1.176v0c0.703 0.183 1.277 0.231 1.722 0.144 0.446-0.094 0.841-0.416 1.183-0.968 0.342-0.551 0.714-1.415 1.114-2.592v0l3.961-11.636c0.39-1.146 0.624-2.018 0.701-2.617 0.077-0.599-0.026-1.07-0.31-1.412-0.28-0.334-0.761-0.674-1.445-1.019v0c0.03-0.418 0.098-0.887 0.205-1.406 0.106-0.519 0.265-1.087 0.474-1.703v0c1.186 0.439 2.297 0.849 3.334 1.229 1.037 0.381 1.989 0.719 2.858 1.015v0c0.819 0.279 1.74 0.585 2.764 0.92 1.024 0.335 1.979 0.646 2.865 0.933 0.886 0.287 1.53 0.5 1.933 0.637v0c2.682 0.913 4.653 1.967 5.911 3.161 1.259 1.194 1.976 2.492 2.152 3.894 0.178 1.396 0.003 2.871-0.526 4.426v0c-0.66 1.939-1.612 3.509-2.857 4.708-1.251 1.197-2.736 1.96-4.456 2.288-1.72 0.328-3.613 0.14-5.679-0.563v0c-1.07-0.364-1.892-0.788-2.465-1.272v0c0.084-0.597 0.245-1.111 0.483-1.542 0.232-0.434 0.497-0.8 0.796-1.1v0c0.14 0.083 0.287 0.157 0.44 0.224 0.147 0.064 0.271 0.113 0.371 0.147v0c0.535 0.182 1.113 0.178 1.732-0.011 0.62-0.19 1.229-0.639 1.829-1.348 0.598-0.703 1.122-1.719 1.575-3.047v0c0.617-1.813 0.779-3.402 0.484-4.767-0.288-1.363-1.159-2.292-2.613-2.787v0c-0.309-0.105-0.631-0.18-0.967-0.223-0.343-0.046-0.681-0.042-1.016 0.012v0l0.571-0.533-5.317 15.621c-0.373 1.096-0.544 2.01-0.513 2.745 0.035 0.743 0.298 1.373 0.79 1.892 0.489 0.525 1.259 1.008 2.309 1.45v0c0.012 0.461-0.057 0.971-0.205 1.532-0.149 0.561-0.306 1.083-0.471 1.568v0c-0.476-0.19-1.128-0.433-1.954-0.729-0.821-0.293-1.707-0.609-2.66-0.947-0.953-0.338-1.864-0.655-2.733-0.951v0c-0.869-0.296-1.784-0.6-2.745-0.914-0.961-0.313-1.869-0.608-2.723-0.885-0.861-0.279-1.588-0.505-2.182-0.679z" fill="#ffffff" data-fill-palette-color="primary"></path><path d="M126.494 279.417v0c0.027-0.724 0.069-1.335 0.127-1.832 0.058-0.497 0.148-0.933 0.268-1.308v0c0.726-0.026 1.29-0.145 1.69-0.357 0.401-0.218 0.686-0.64 0.856-1.267 0.169-0.626 0.277-1.56 0.322-2.803v0l0.453-12.283c0.045-1.21 0.018-2.112-0.08-2.708-0.098-0.596-0.332-1.017-0.702-1.264-0.364-0.24-0.923-0.427-1.677-0.561v0c-0.091-0.409-0.161-0.878-0.208-1.405-0.047-0.528-0.059-1.117-0.034-1.769v0c0.643 0.057 1.444 0.11 2.4 0.159 0.957 0.049 1.973 0.099 3.049 0.152 1.076 0.053 2.106 0.098 3.09 0.134 0.984 0.036 1.824 0.067 2.522 0.093v0l-0.712 19.351c-0.043 1.156 0.056 2.082 0.297 2.776 0.247 0.701 0.68 1.23 1.299 1.586 0.619 0.362 1.495 0.604 2.629 0.725v0c0.144 0.438 0.225 0.947 0.243 1.527 0.019 0.58 0.018 1.125 0 1.637v0c-0.511-0.045-1.211-0.091-2.102-0.137-0.883-0.046-1.817-0.094-2.8-0.143-0.983-0.05-1.907-0.09-2.771-0.122v0c-1.456-0.054-2.945-0.102-4.467-0.145-1.523-0.043-2.753-0.055-3.692-0.036zM145.917 272.485v0c-0.751-0.028-1.401-0.078-1.951-0.152-0.55-0.073-1.051-0.198-1.504-0.374v0c-0.066-1.107-0.328-1.852-0.786-2.236-0.458-0.383-1.279-0.596-2.462-0.64v0l-2.303-0.084 0.111-3.031 2.303 0.085c1.316 0.048 2.191-0.136 2.626-0.553 0.434-0.41 0.684-1.14 0.75-2.188v0c0.466-0.176 1.029-0.285 1.689-0.327 0.66-0.042 1.286-0.052 1.878-0.031v0c-0.05 0.644-0.109 1.337-0.176 2.08-0.067 0.736-0.119 1.616-0.158 2.64v0c-0.042 1.13-0.056 2.068-0.043 2.813 0.013 0.739 0.021 1.405 0.026 1.998zM146.239 260.487v0c-0.124-0.976-0.355-1.83-0.694-2.561-0.339-0.725-0.871-1.297-1.594-1.716-0.724-0.413-1.76-0.644-3.109-0.694v0l-4.158-0.153 1.478-2.98c2.16 0.08 3.952 0.139 5.374 0.178 1.429 0.039 2.636 0.07 3.621 0.093 0.984 0.023 1.852 0.032 2.604 0.026v0c0.002 0.679 0.023 1.465 0.063 2.358 0.034 0.886 0.095 1.757 0.183 2.613 0.088 0.855 0.2 1.608 0.337 2.258v0c-0.512 0.168-1.09 0.313-1.734 0.436-0.637 0.13-1.427 0.177-2.371 0.142z" fill="#ffffff" data-fill-palette-color="primary"></path><path d="M177.509 275.064v0c-2.817 0.743-5.379 0.807-7.688 0.192-2.308-0.615-4.273-1.803-5.893-3.563-1.62-1.76-2.791-4.01-3.514-6.749v0c-0.55-2.084-0.712-4.039-0.486-5.867 0.225-1.834 0.784-3.495 1.678-4.983 0.887-1.486 2.073-2.755 3.556-3.806 1.479-1.044 3.208-1.827 5.189-2.35v0c2.733-0.721 5.25-0.814 7.551-0.28 2.301 0.535 4.269 1.618 5.903 3.251 1.628 1.634 2.789 3.766 3.483 6.396v0c0.558 2.116 0.754 4.121 0.587 6.016-0.172 1.903-0.685 3.634-1.539 5.193-0.852 1.566-2.024 2.914-3.515 4.044-1.484 1.128-3.255 1.963-5.312 2.506zM177.177 271.891v0c1.093-0.288 1.899-0.952 2.416-1.989 0.522-1.046 0.773-2.388 0.753-4.027-0.013-1.641-0.298-3.515-0.855-5.625v0c-0.529-2.006-1.251-3.763-2.164-5.269-0.912-1.5-1.943-2.62-3.095-3.362-1.158-0.74-2.364-0.944-3.619-0.613v0c-1.042 0.275-1.834 0.883-2.376 1.824-0.551 0.936-0.835 2.167-0.853 3.691-0.011 1.523 0.255 3.313 0.799 5.372v0c0.412 1.563 0.918 3.011 1.518 4.345 0.606 1.333 1.288 2.47 2.046 3.412 0.764 0.94 1.6 1.617 2.506 2.032 0.901 0.416 1.875 0.485 2.924 0.209z" fill="#ffffff" data-fill-palette-color="primary"></path><path d="M213.469 236.002l4.364 6.765c1.255 1.945 2.152 3.642 2.691 5.091 0.533 1.453 0.659 2.832 0.377 4.137v0c-0.297 1.086-0.851 2.092-1.661 3.019-0.815 0.921-1.879 1.805-3.192 2.653v0c-2.264 1.46-4.238 2.326-5.923 2.598-1.69 0.275-3.214-0.032-4.571-0.922-1.357-0.889-2.672-2.321-3.945-4.293v0l-5.408-8.384c-0.689-1.067-1.262-1.821-1.721-2.262-0.464-0.437-0.919-0.658-1.365-0.662-0.448 0.004-1.009 0.16-1.681 0.467v0c-0.324-0.306-0.654-0.67-0.991-1.094-0.337-0.424-0.667-0.887-0.992-1.39v0c0.471-0.264 1.144-0.663 2.019-1.196 0.875-0.533 1.765-1.091 2.671-1.675v0c0.453-0.292 1.02-0.658 1.701-1.098 0.676-0.436 1.374-0.894 2.094-1.374 0.719-0.48 1.369-0.915 1.948-1.305 0.58-0.39 0.997-0.687 1.254-0.891v0c0.353 0.548 0.654 1.038 0.902 1.472 0.248 0.434 0.452 0.872 0.611 1.315v0c-0.557 0.486-0.918 0.933-1.083 1.34-0.167 0.416-0.138 0.92 0.085 1.512 0.218 0.595 0.664 1.416 1.338 2.461v0l5.041 7.813c0.905 1.403 1.799 2.476 2.682 3.22 0.884 0.744 1.754 1.16 2.61 1.249 0.857 0.089 1.704-0.138 2.543-0.678v0c0.52-0.335 0.976-0.788 1.368-1.358 0.383-0.572 0.589-1.235 0.617-1.989v0c0.01-0.426-0.065-0.916-0.225-1.47-0.165-0.55-0.454-1.231-0.865-2.041-0.408-0.805-0.986-1.786-1.733-2.943v0l-3.942-6.111c-0.732-1.135-1.371-1.965-1.916-2.492-0.549-0.532-1.071-0.833-1.567-0.901-0.492-0.063-1.056 0.032-1.692 0.284v0c-0.359-0.409-0.703-0.833-1.032-1.269-0.331-0.427-0.628-0.845-0.892-1.253v0c0.337-0.178 0.74-0.41 1.212-0.699 0.471-0.288 0.953-0.583 1.446-0.885 0.499-0.306 0.905-0.56 1.218-0.762v0c0.659-0.425 1.315-0.864 1.966-1.316 0.656-0.455 1.191-0.835 1.603-1.141v0c0.324 0.503 0.612 0.986 0.863 1.45 0.251 0.463 0.443 0.925 0.574 1.387v0c-0.544 0.446-0.883 0.902-1.017 1.368-0.125 0.469-0.057 1.034 0.204 1.696 0.27 0.665 0.741 1.517 1.412 2.557z" fill="#ffffff" data-fill-palette-color="primary"></path><path d="M242.185 217.075l8.033 8.409-29.2-1.66c-0.432-0.073-0.819-0.019-1.161 0.164-0.346 0.188-0.826 0.589-1.44 1.203v0c-0.421-0.211-0.851-0.464-1.289-0.759-0.438-0.295-0.888-0.633-1.348-1.016v0c0.247-0.245 0.596-0.629 1.048-1.153 0.448-0.518 0.906-1.05 1.375-1.594 0.465-0.539 0.835-0.975 1.112-1.307v0c0.429-0.517 0.932-1.132 1.508-1.847 0.576-0.715 1.013-1.298 1.312-1.751v0zM236.993 241.034v0c-0.496-0.412-0.929-0.797-1.297-1.155-0.368-0.358-0.677-0.726-0.925-1.105v0c0.454-0.713 0.711-1.351 0.773-1.914 0.066-0.559-0.144-1.17-0.631-1.833-0.481-0.659-1.313-1.48-2.495-2.461v0l-12.348-10.256 2.183-2.129 12.103 10.052c1.182 0.982 2.13 1.661 2.846 2.039 0.716 0.387 1.342 0.497 1.879 0.329 0.542-0.164 1.13-0.544 1.765-1.141v0c0.418 0.174 0.852 0.431 1.304 0.772 0.452 0.341 0.885 0.683 1.3 1.027v0c-0.263 0.275-0.588 0.635-0.977 1.082-0.388 0.447-0.785 0.904-1.191 1.372-0.41 0.472-0.759 0.883-1.048 1.23v0c-0.293 0.353-0.66 0.805-1.1 1.356-0.436 0.546-0.855 1.071-1.257 1.576-0.406 0.51-0.701 0.896-0.884 1.159zM250.218 225.484v0l-5.457-5.375-8.649-7.183c-1.182-0.982-2.128-1.664-2.839-2.047-0.72-0.382-1.36-0.481-1.919-0.297-0.554 0.188-1.18 0.619-1.878 1.293v0c-0.425-0.206-0.878-0.483-1.36-0.83-0.486-0.352-0.905-0.674-1.258-0.968v0c0.268-0.27 0.617-0.655 1.048-1.153 0.435-0.503 0.877-1.014 1.325-1.532 0.448-0.518 0.818-0.954 1.111-1.307v0c0.446-0.537 0.927-1.137 1.442-1.799 0.515-0.662 0.915-1.19 1.199-1.584v0c0.42 0.348 0.818 0.697 1.195 1.044 0.377 0.348 0.728 0.747 1.053 1.199v0c-0.385 0.588-0.576 1.121-0.574 1.597 0.007 0.481 0.267 1.021 0.78 1.621 0.519 0.604 1.39 1.413 2.613 2.429v0l14.244 11.831c-0.221 0.516-0.502 1.01-0.841 1.48-0.339 0.471-0.751 0.998-1.235 1.581z" fill="#ffffff" data-fill-palette-color="primary"></path><path d="M261.651 207.327v0c-0.548-0.223-1.074-0.465-1.578-0.727-0.504-0.262-0.911-0.514-1.222-0.756v0c0.224-0.692 0.305-1.262 0.243-1.71-0.068-0.451-0.369-0.857-0.905-1.219-0.535-0.361-1.379-0.776-2.531-1.244v0l-11.386-4.628c-1.121-0.456-1.981-0.734-2.58-0.833-0.598-0.1-1.079-0.012-1.443 0.264-0.357 0.278-0.727 0.746-1.108 1.402v0c-0.416-0.054-0.924-0.182-1.525-0.383-0.607-0.203-1.11-0.387-1.51-0.549v0c0.274-0.585 0.595-1.313 0.962-2.183 0.365-0.864 0.756-1.789 1.172-2.776 0.413-0.981 0.802-1.921 1.168-2.821v0c0.213-0.524 0.438-1.114 0.677-1.771 0.238-0.657 0.52-1.386 0.846-2.187v0c0.589-1.448 1.249-2.809 1.982-4.083 0.733-1.274 1.577-2.371 2.533-3.289 0.955-0.919 2.059-1.611 3.311-2.079 1.252-0.467 2.678-0.645 4.277-0.534 1.599 0.111 3.421 0.583 5.466 1.415v0c2.027 0.824 3.663 1.78 4.909 2.867 1.245 1.088 2.189 2.236 2.832 3.445 0.643 1.209 1.06 2.434 1.252 3.675 0.192 1.241 0.228 2.441 0.11 3.599-0.119 1.158-0.312 2.207-0.579 3.146-0.267 0.94-0.527 1.721-0.78 2.343v0c-0.265 0.653-0.617 1.537-1.056 2.651-0.438 1.114-0.898 2.281-1.379 3.499-0.479 1.213-0.915 2.321-1.308 3.324-0.396 1.009-0.679 1.723-0.85 2.142zM264.088 192.961v0c0.113-0.277 0.178-0.703 0.196-1.278 0.012-0.577-0.196-1.25-0.623-2.019-0.427-0.769-1.225-1.596-2.394-2.481-1.172-0.878-2.895-1.78-5.169-2.704v0c-1.996-0.811-3.71-1.321-5.14-1.529-1.427-0.199-2.617-0.166-3.572 0.099-0.949 0.268-1.717 0.691-2.304 1.271-0.585 0.574-1.035 1.248-1.351 2.025v0c-0.173 0.425-0.271 0.852-0.294 1.28-0.027 0.42 0.017 0.771 0.131 1.055v0l-1.416-1.233 16.368 6.654c1.146 0.466 2.075 0.743 2.785 0.83 0.707 0.079 1.274-0.042 1.699-0.365 0.417-0.319 0.778-0.854 1.084-1.605z" fill="#ffffff" data-fill-palette-color="primary"></path><path d="M12.881 144.478c0-1.76 1.427-3.188 3.188-3.188 1.76 0 3.188 1.427 3.187 3.188 0 1.76-1.427 3.188-3.187 3.187-1.76 0-3.188-1.427-3.188-3.187z" fill="#ffffff" data-fill-palette-color="primary"></path><path d="M264.293 144.478c0-1.76 1.427-3.188 3.188-3.188 1.76 0 3.188 1.427 3.188 3.188 0 1.76-1.427 3.188-3.188 3.187-1.76 0-3.188-1.427-3.188-3.187z" fill="#ffffff" data-fill-palette-color="primary"></path></g></svg></g></svg></g></svg></g><g></g></svg></g><defs></defs></svg><rect width="280" height="280" fill="none" stroke="none" visibility="hidden"></rect></g></svg></g></svg>